<?xml version="1.0" standalone="no"?>
<!DOCTYPE svg PUBLIC "-//W3C//DTD SVG 20010904//EN"
 "http://www.w3.org/TR/2001/REC-SVG-20010904/DTD/svg10.dtd">
<svg version="1.0" xmlns="http://www.w3.org/2000/svg"
 width="512.000000pt" height="512.000000pt" viewBox="0 0 512.000000 512.000000"
 preserveAspectRatio="xMidYMid meet">
<metadata>
Created by potrace 1.11, written by Peter Selinger 2001-2013
</metadata>
<g transform="translate(0.000000,512.000000) scale(0.100000,-0.100000)"
fill="#000000" stroke="none">
<path d="M1362 4947 c-56 -17 -128 -91 -147 -148 -32 -95 -6 -190 69 -256 66
-59 161 -77 239 -47 15 5 50 -24 168 -142 l149 -149 0 -261 0 -262 -53 -6
c-107 -14 -223 -88 -282 -180 -42 -67 -59 -119 -64 -193 -1 -23 -3 -23 -144
-23 l-142 0 -109 109 -108 109 12 37 c15 44 8 120 -15 169 -51 108 -182 160
-300 119 -58 -19 -127 -95 -145 -158 -30 -109 25 -232 126 -280 49 -23 125
-30 169 -15 l37 12 129 -128 129 -129 180 -3 180 -3 0 -80 0 -79 -253 0 -254
0 -129 -103 c-71 -56 -138 -110 -149 -119 -11 -9 -37 -30 -58 -47 l-38 -29
-43 24 c-94 53 -194 41 -276 -33 -57 -51 -80 -107 -76 -185 4 -90 58 -172 136
-206 48 -21 133 -23 186 -5 84 29 162 145 153 231 -3 28 6 38 126 133 72 57
132 106 135 109 3 3 24 20 47 38 l42 32 225 0 226 0 0 -80 0 -80 -135 0 c-134
0 -136 0 -160 -26 -26 -28 -29 -43 -19 -82 11 -41 52 -52 189 -52 l125 0 0
-80 0 -80 -295 0 c-280 0 -296 -1 -315 -20 -43 -43 -35 -111 16 -130 14 -6
148 -10 310 -10 l284 0 0 -80 0 -80 -215 0 c-200 0 -216 -1 -235 -20 -10 -10
-88 -122 -171 -247 -83 -125 -153 -229 -154 -231 -1 -1 -25 3 -53 9 -86 20
-155 -1 -218 -65 -97 -100 -98 -241 -2 -335 97 -95 237 -93 334 4 64 64 85
133 65 217 l-12 52 152 228 152 228 179 0 c178 0 178 0 179 -22 3 -90 52 -196
121 -262 71 -67 170 -112 256 -115 l22 -1 0 -263 0 -262 -149 -149 c-118 -118
-153 -147 -168 -142 -77 30 -172 12 -238 -46 -57 -50 -77 -90 -81 -161 -4 -80
18 -137 72 -187 68 -63 137 -82 220 -61 64 16 107 48 145 106 30 45 33 57 32
120 0 39 -3 80 -4 91 -3 17 35 61 164 192 l167 170 0 296 0 296 80 0 80 0 0
-253 c0 -277 2 -289 59 -302 33 -7 85 15 95 40 3 9 6 129 6 266 l0 249 80 0
80 0 0 -335 0 -335 28 -25 c15 -14 124 -85 241 -159 l215 -134 -3 -50 c-9
-174 189 -304 344 -224 183 93 185 345 4 436 -66 32 -163 31 -222 -3 l-39 -22
-109 68 c-59 37 -151 95 -204 128 l-95 60 0 297 0 298 80 0 80 0 0 -127 c0
-82 5 -137 13 -152 14 -28 57 -46 92 -37 43 11 55 52 55 191 l0 125 80 0 80 0
0 -294 c0 -274 1 -295 19 -317 19 -24 19 -24 288 -27 l269 -3 22 -42 c46 -85
149 -130 249 -109 127 26 203 130 190 258 -6 63 -24 98 -72 146 -68 67 -186
86 -273 43 -35 -18 -112 -101 -112 -121 0 -11 -40 -14 -210 -14 l-210 0 0 240
0 240 23 1 c192 6 369 183 376 377 l1 22 409 0 409 0 12 -30 c30 -74 114 -123
210 -124 81 -1 125 18 178 79 114 129 57 334 -105 381 -113 33 -215 -7 -279
-108 l-24 -38 -405 0 -405 0 0 80 0 80 205 0 c163 0 212 3 235 15 33 17 44 43
35 85 -12 56 -28 60 -262 60 l-213 0 0 80 0 80 210 0 210 0 228 114 227 114
30 -24 c57 -45 171 -55 240 -20 80 40 137 138 131 227 -8 137 -104 224 -243
224 -65 -1 -77 -4 -121 -35 -69 -47 -110 -117 -111 -192 l-1 -38 -210 -105
-210 -105 -190 0 -190 0 0 80 0 80 134 0 c129 0 134 1 161 26 23 22 27 31 22
62 -11 64 -31 72 -183 72 l-134 0 0 80 0 80 177 0 176 0 131 130 132 130 61
-12 c83 -15 138 1 203 59 57 51 79 106 76 185 -11 246 -343 312 -451 90 -23
-46 -29 -123 -15 -167 l12 -37 -108 -109 -109 -109 -142 0 -142 0 -7 56 c-9
76 -63 182 -120 234 -25 23 -74 55 -109 71 -59 28 -85 35 -142 38 -22 1 -23 4
-23 104 l0 102 229 229 229 228 36 -12 c91 -30 208 15 265 101 105 161 -14
373 -205 365 -132 -5 -226 -97 -230 -225 -1 -29 3 -67 8 -83 11 -30 8 -33
-230 -272 -132 -132 -245 -251 -251 -263 -6 -12 -11 -75 -11 -147 l0 -126 -80
0 -80 0 0 128 c0 82 -5 136 -13 152 -15 30 -54 45 -90 36 -45 -11 -57 -50 -57
-191 l0 -125 -80 0 -80 0 0 250 0 250 25 6 c35 9 109 94 123 142 33 111 -19
235 -122 289 -46 24 -152 26 -201 4 -122 -56 -178 -204 -121 -323 22 -46 68
-92 107 -108 l29 -12 0 -249 0 -249 -80 0 -80 0 0 125 c0 137 -11 178 -52 189
-39 10 -54 7 -82 -19 -26 -24 -26 -26 -26 -160 l0 -135 -80 0 -79 0 -3 300 -3
300 -168 168 -169 169 12 44 c49 179 -128 344 -308 286z m125 -162 c26 -18 39
-75 24 -103 -5 -10 -24 -25 -41 -32 -71 -30 -137 49 -95 113 24 38 75 48 112
22z m2409 -166 c19 -15 28 -73 15 -97 -5 -10 -24 -25 -41 -32 -71 -30 -137 49
-95 113 9 14 24 28 33 31 24 6 72 -2 88 -15z m-1278 -162 c7 -8 15 -29 18 -49
5 -28 2 -40 -15 -57 -62 -62 -158 -10 -137 74 12 48 97 68 134 32z m-1858
-792 c58 -30 45 -126 -19 -140 -81 -17 -132 69 -76 129 27 30 53 33 95 11z
m3675 5 c30 -11 48 -53 40 -91 -15 -67 -112 -77 -142 -15 -20 43 -11 81 25
100 33 18 43 19 77 6z m-1079 -165 c55 -16 112 -66 140 -123 18 -35 19 -79 22
-797 2 -526 -1 -774 -8 -804 -15 -59 -55 -113 -110 -148 l-45 -28 -760 -3
c-537 -2 -775 0 -812 8 -39 8 -65 23 -102 56 -84 76 -81 37 -81 899 0 856 -4
813 80 888 27 24 63 48 82 54 22 7 285 11 789 12 637 1 763 -1 805 -14z m1404
-560 c59 -30 45 -126 -20 -140 -70 -15 -124 60 -85 118 24 38 60 45 105 22z
m-4325 -395 c30 -11 48 -53 40 -91 -14 -64 -110 -77 -140 -19 -22 42 -19 68
11 95 29 27 49 30 89 15z m4340 -570 c18 -15 28 -64 20 -90 -9 -28 -60 -53
-95 -45 -36 8 -49 24 -56 67 -5 26 -1 39 21 62 22 24 32 28 62 23 19 -3 41
-11 48 -17z m-4180 -630 c30 -11 48 -53 40 -91 -15 -67 -112 -77 -142 -15 -20
43 -11 81 25 100 33 18 43 19 77 6z m3381 -411 c39 -32 17 -123 -32 -135 -43
-11 -92 19 -99 60 -7 37 14 81 43 90 23 6 72 -2 88 -15z m-2480 -480 c39 -32
17 -123 -32 -135 -43 -11 -92 19 -99 60 -7 37 14 81 43 90 23 6 72 -2 88 -15z
m1732 15 c30 -9 55 -58 47 -94 -15 -66 -110 -79 -141 -18 -19 37 -12 76 19
100 24 19 39 21 75 12z"/>
<path d="M2346 3335 c-24 -22 -26 -30 -26 -109 l0 -85 -61 59 c-95 92 -100 91
-265 -74 -121 -121 -134 -137 -134 -169 0 -29 9 -44 55 -91 30 -30 55 -58 55
-61 0 -3 -36 -5 -80 -5 -66 0 -83 -3 -100 -20 -29 -29 -32 -50 -28 -243 4
-217 0 -210 127 -215 l88 -4 -58 -60 c-91 -94 -90 -99 75 -264 121 -121 137
-134 169 -134 29 0 44 9 91 55 30 30 58 55 61 55 3 0 5 -32 5 -70 0 -89 18
-127 63 -135 18 -4 110 -5 205 -3 171 3 173 3 192 28 16 20 20 42 20 107 l0
82 61 -59 c95 -92 100 -91 265 74 121 121 134 137 134 169 0 29 -10 44 -55 91
-30 30 -55 58 -55 61 0 3 32 5 70 5 74 0 123 17 134 45 3 9 6 99 6 200 0 232
2 228 -128 233 l-90 4 59 60 c49 50 59 66 59 95 0 32 -13 48 -129 165 -112
113 -134 130 -168 135 -36 5 -42 2 -96 -51 -31 -31 -59 -56 -62 -56 -3 0 -5
30 -5 68 0 139 -6 142 -248 142 -176 0 -180 0 -206 -25z m294 -242 c1 -74 5
-114 14 -125 20 -27 101 -60 129 -53 13 4 57 40 98 81 l73 74 58 -57 58 -57
-80 -82 c-44 -45 -80 -89 -80 -98 0 -36 43 -118 67 -127 13 -5 69 -9 124 -9
l99 0 0 -80 0 -80 -97 0 c-130 0 -140 -4 -167 -59 -36 -70 -28 -93 58 -180
l76 -76 -57 -57 -57 -57 -83 80 c-91 89 -99 91 -184 48 -44 -22 -49 -37 -49
-161 l0 -98 -80 0 -80 0 0 100 c0 54 -5 110 -11 124 -15 33 -101 70 -135 59
-13 -4 -57 -41 -97 -80 l-73 -73 -57 58 -57 58 74 72 c41 41 77 84 80 97 9 34
-26 117 -55 132 -14 8 -65 13 -126 13 l-103 0 0 80 0 80 108 0 c73 1 113 5
124 14 25 19 58 98 53 126 -3 14 -38 58 -80 100 l-75 75 57 57 57 57 82 -80
c76 -73 85 -79 114 -74 40 7 91 33 107 54 8 10 12 55 13 124 l0 107 80 0 80 0
0 -107z"/>
<path d="M2460 2863 c-85 -30 -143 -82 -186 -164 -26 -47 -29 -64 -28 -139 0
-69 5 -95 24 -135 31 -64 91 -124 155 -155 72 -34 198 -34 270 0 164 80 226
263 149 437 -21 48 -93 115 -149 142 -65 30 -172 37 -235 14z m189 -171 c50
-37 66 -70 66 -131 -1 -48 -6 -65 -29 -96 -98 -129 -303 -43 -283 118 6 46 49
104 91 123 40 18 122 11 155 -14z"/>
</g>
</svg>
